<svg width="764" height="150" viewBox="0 0 764 150" fill="none" xmlns="http://www.w3.org/2000/svg">
<path d="M239.456 102V36.5455H264.513C269.243 36.5455 273.174 37.2912 276.306 38.7827C279.46 40.2528 281.814 42.2663 283.369 44.8232C284.946 47.38 285.734 50.2777 285.734 53.5163C285.734 56.1797 285.223 58.4595 284.2 60.3558C283.178 62.2308 281.803 63.7543 280.077 64.9261C278.352 66.098 276.423 66.9396 274.293 67.451V68.0902C276.615 68.218 278.842 68.9318 280.972 70.2315C283.124 71.5099 284.882 73.321 286.246 75.6648C287.609 78.0085 288.291 80.8423 288.291 84.1662C288.291 87.554 287.471 90.6009 285.83 93.3068C284.19 95.9915 281.718 98.1115 278.415 99.6669C275.113 101.222 270.958 102 265.951 102H239.456ZM251.313 92.0923H264.065C268.369 92.0923 271.469 91.272 273.366 89.6314C275.283 87.9695 276.242 85.8388 276.242 83.2393C276.242 81.3004 275.763 79.5533 274.804 77.9979C273.845 76.4212 272.482 75.1854 270.713 74.2905C268.945 73.3743 266.835 72.9162 264.385 72.9162H251.313V92.0923ZM251.313 64.3828H263.043C265.088 64.3828 266.931 64.0099 268.572 63.2642C270.212 62.4972 271.501 61.4212 272.439 60.0362C273.398 58.63 273.877 56.968 273.877 55.0504C273.877 52.5149 272.982 50.4268 271.192 48.7862C269.424 47.1456 266.793 46.3253 263.298 46.3253H251.313V64.3828ZM329.384 81.3537V52.9091H340.954V102H329.736V93.2749H329.224C328.116 96.0234 326.295 98.2713 323.759 100.018C321.245 101.766 318.145 102.639 314.459 102.639C311.241 102.639 308.397 101.925 305.925 100.498C303.475 99.049 301.557 96.9503 300.172 94.2017C298.787 91.4318 298.095 88.0866 298.095 84.1662V52.9091H309.665V82.3764C309.665 85.4872 310.517 87.9588 312.221 89.7912C313.926 91.6236 316.163 92.5398 318.933 92.5398C320.638 92.5398 322.289 92.1243 323.887 91.2933C325.485 90.4624 326.795 89.2266 327.818 87.5859C328.862 85.924 329.384 83.8466 329.384 81.3537ZM364.42 73.2358V102H352.851V52.9091H363.909V61.2507H364.484C365.614 58.5021 367.414 56.3182 369.886 54.6989C372.379 53.0795 375.457 52.2699 379.122 52.2699C382.51 52.2699 385.461 52.9943 387.975 54.4432C390.511 55.892 392.471 57.9908 393.856 60.7393C395.262 63.4879 395.955 66.8224 395.933 70.7429V102H384.364V72.5327C384.364 69.2514 383.511 66.6839 381.807 64.8303C380.124 62.9766 377.79 62.0497 374.808 62.0497C372.783 62.0497 370.983 62.4972 369.406 63.392C367.851 64.2656 366.626 65.5334 365.731 67.1953C364.857 68.8572 364.42 70.8707 364.42 73.2358ZM418.241 86.5952L418.21 72.6286H420.063L437.705 52.9091H451.224L429.523 77.071H427.126L418.241 86.5952ZM407.695 102V36.5455H419.264V102H407.695ZM438.504 102L422.524 79.6598L430.322 71.5099L452.343 102H438.504ZM478.646 102.959C473.724 102.959 469.474 101.936 465.894 99.8906C462.336 97.8239 459.598 94.9048 457.68 91.1335C455.763 87.3409 454.804 82.8771 454.804 77.7422C454.804 72.6925 455.763 68.2607 457.68 64.4467C459.619 60.6115 462.325 57.6285 465.798 55.4979C469.271 53.3459 473.352 52.2699 478.039 52.2699C481.065 52.2699 483.92 52.7599 486.604 53.7401C489.31 54.6989 491.697 56.1903 493.763 58.2145C495.852 60.2386 497.492 62.8168 498.685 65.9489C499.879 69.0597 500.475 72.767 500.475 77.071V80.6186H460.237V72.8203H489.385C489.364 70.6044 488.884 68.6335 487.947 66.9077C487.009 65.1605 485.699 63.7862 484.016 62.7848C482.354 61.7834 480.415 61.2827 478.199 61.2827C475.834 61.2827 473.756 61.858 471.967 63.0085C470.177 64.1378 468.781 65.6293 467.78 67.483C466.8 69.3153 466.299 71.3288 466.278 73.5234V80.331C466.278 83.1861 466.8 85.6364 467.844 87.6818C468.888 89.706 470.347 91.2614 472.222 92.348C474.097 93.4134 476.292 93.946 478.806 93.946C480.489 93.946 482.013 93.7116 483.376 93.2429C484.74 92.7528 485.923 92.0391 486.924 91.1016C487.925 90.1641 488.682 89.0028 489.193 87.6179L499.996 88.8324C499.314 91.6875 498.014 94.1804 496.097 96.3111C494.2 98.4205 491.771 100.061 488.81 101.233C485.848 102.384 482.46 102.959 478.646 102.959ZM510.263 102V52.9091H521.481V61.0909H521.992C522.887 58.2571 524.421 56.0732 526.595 54.5391C528.789 52.9837 531.293 52.206 534.105 52.206C534.744 52.206 535.458 52.2379 536.247 52.3018C537.056 52.3445 537.727 52.419 538.26 52.5256V63.1683C537.77 62.9979 536.992 62.8487 535.927 62.7209C534.883 62.5717 533.871 62.4972 532.891 62.4972C530.781 62.4972 528.885 62.9553 527.202 63.8714C525.54 64.7663 524.23 66.0128 523.271 67.6108C522.312 69.2088 521.833 71.0518 521.833 73.1399V102H510.263ZM602.484 58.63H590.531C590.19 56.6697 589.562 54.9332 588.645 53.4205C587.729 51.8864 586.589 50.5866 585.226 49.5213C583.862 48.456 582.307 47.657 580.559 47.1243C578.834 46.5703 576.969 46.2933 574.966 46.2933C571.408 46.2933 568.255 47.1882 565.506 48.978C562.758 50.7464 560.606 53.3459 559.05 56.7763C557.495 60.1854 556.717 64.3509 556.717 69.2727C556.717 74.2798 557.495 78.4986 559.05 81.929C560.627 85.3381 562.779 87.9162 565.506 89.6634C568.255 91.3892 571.398 92.2521 574.934 92.2521C576.895 92.2521 578.727 91.9964 580.432 91.4851C582.157 90.9524 583.702 90.1747 585.066 89.152C586.451 88.1293 587.612 86.8722 588.55 85.3807C589.508 83.8892 590.169 82.1847 590.531 80.267L602.484 80.331C602.037 83.4418 601.067 86.3608 599.576 89.0881C598.106 91.8153 596.177 94.223 593.791 96.3111C591.405 98.3778 588.613 99.9972 585.417 101.169C582.221 102.32 578.674 102.895 574.775 102.895C569.022 102.895 563.887 101.563 559.37 98.8999C554.853 96.2365 551.295 92.3906 548.695 87.3622C546.096 82.3338 544.796 76.304 544.796 69.2727C544.796 62.2202 546.106 56.1903 548.727 51.1832C551.348 46.1548 554.917 42.3089 559.434 39.6456C563.951 36.9822 569.064 35.6506 574.775 35.6506C578.418 35.6506 581.806 36.1619 584.938 37.1847C588.07 38.2074 590.861 39.7095 593.312 41.6911C595.762 43.6513 597.775 46.0589 599.352 48.9141C600.95 51.7479 601.994 54.9865 602.484 58.63ZM626.958 102.991C623.847 102.991 621.045 102.437 618.552 101.329C616.081 100.2 614.12 98.5376 612.672 96.343C611.244 94.1484 610.53 91.4425 610.53 88.2251C610.53 85.4553 611.042 83.1648 612.064 81.3537C613.087 79.5426 614.483 78.0938 616.251 77.0071C618.02 75.9205 620.012 75.1001 622.228 74.5462C624.465 73.9709 626.777 73.5554 629.163 73.2997C632.039 73.0014 634.373 72.7351 636.162 72.5007C637.952 72.245 639.252 71.8615 640.061 71.3501C640.892 70.8175 641.308 69.9972 641.308 68.8892V68.6974C641.308 66.2898 640.594 64.4254 639.167 63.1044C637.739 61.7834 635.683 61.1229 632.998 61.1229C630.164 61.1229 627.917 61.7408 626.255 62.9766C624.614 64.2124 623.506 65.6719 622.931 67.3551L612.128 65.821C612.98 62.8381 614.387 60.3452 616.347 58.3423C618.307 56.3182 620.704 54.8054 623.538 53.804C626.372 52.7812 629.504 52.2699 632.934 52.2699C635.299 52.2699 637.654 52.5469 639.998 53.1009C642.341 53.6548 644.483 54.571 646.422 55.8494C648.36 57.1065 649.916 58.8217 651.088 60.995C652.281 63.1683 652.877 65.8849 652.877 69.1449V102H641.755V95.2564H641.372C640.669 96.62 639.678 97.8984 638.4 99.0916C637.142 100.263 635.555 101.212 633.637 101.936C631.741 102.639 629.515 102.991 626.958 102.991ZM629.962 94.4893C632.284 94.4893 634.298 94.0312 636.002 93.1151C637.707 92.1776 639.017 90.9418 639.934 89.4077C640.871 87.8736 641.34 86.201 641.34 84.3899V78.6051C640.978 78.9034 640.36 79.1804 639.486 79.4361C638.634 79.6918 637.675 79.9155 636.61 80.1072C635.544 80.299 634.49 80.4695 633.446 80.6186C632.402 80.7678 631.496 80.8956 630.729 81.0021C629.003 81.2365 627.458 81.62 626.095 82.1527C624.731 82.6854 623.655 83.4311 622.867 84.3899C622.078 85.3274 621.684 86.5419 621.684 88.0334C621.684 90.1641 622.462 91.7727 624.017 92.8594C625.573 93.946 627.554 94.4893 629.962 94.4893ZM703.311 65.8849L692.764 67.0355C692.466 65.9702 691.944 64.9688 691.198 64.0312C690.473 63.0938 689.493 62.3374 688.257 61.7621C687.022 61.1868 685.509 60.8991 683.719 60.8991C681.311 60.8991 679.287 61.4212 677.647 62.4652C676.027 63.5092 675.228 64.8622 675.25 66.5241C675.228 67.9517 675.75 69.1129 676.816 70.0078C677.902 70.9027 679.692 71.6378 682.185 72.2131L690.559 74.0028C695.203 75.0043 698.655 76.5916 700.914 78.7649C703.194 80.9382 704.344 83.7827 704.365 87.2983C704.344 90.3878 703.439 93.1151 701.649 95.4801C699.88 97.8239 697.419 99.6562 694.266 100.977C691.113 102.298 687.49 102.959 683.4 102.959C677.391 102.959 672.554 101.702 668.89 99.1875C665.225 96.652 663.041 93.1257 662.338 88.6087L673.62 87.522C674.131 89.7379 675.218 91.4105 676.88 92.5398C678.542 93.669 680.704 94.2337 683.368 94.2337C686.116 94.2337 688.321 93.669 689.983 92.5398C691.667 91.4105 692.508 90.0149 692.508 88.353C692.508 86.9467 691.965 85.7855 690.878 84.8693C689.813 83.9531 688.151 83.25 685.892 82.7599L677.519 81.0021C672.81 80.022 669.326 78.3707 667.068 76.0483C664.809 73.7045 663.691 70.7429 663.712 67.1634C663.691 64.1378 664.511 61.517 666.173 59.3011C667.856 57.0639 670.189 55.3381 673.172 54.1236C676.176 52.8878 679.639 52.2699 683.559 52.2699C689.312 52.2699 693.84 53.495 697.142 55.9453C700.466 58.3956 702.522 61.7088 703.311 65.8849ZM725.475 73.2358V102H713.906V36.5455H725.219V61.2507H725.795C726.945 58.4808 728.724 56.2969 731.132 54.6989C733.561 53.0795 736.651 52.2699 740.401 52.2699C743.81 52.2699 746.782 52.9837 749.317 54.4112C751.853 55.8388 753.813 57.9268 755.198 60.6754C756.604 63.424 757.308 66.7798 757.308 70.7429V102H745.738V72.5327C745.738 69.2301 744.886 66.6626 743.181 64.8303C741.498 62.9766 739.133 62.0497 736.086 62.0497C734.04 62.0497 732.208 62.4972 730.589 63.392C728.991 64.2656 727.734 65.5334 726.817 67.1953C725.923 68.8572 725.475 70.8707 725.475 73.2358Z" fill="white"/>
<path d="M0 16.3531L78.4201 0L118 20.0142L78.6667 54.6526L0 71V16.3531Z" fill="#00FFB2"/>
<path d="M0 91.9966L102.586 71L141 90.2014L108.548 127.507L0 150V91.9966Z" fill="#00FFB2"/>
</svg>
